<?xml version="1.0" encoding="UTF-8" standalone="no"?>
<!-- Created with Inkscape (http://www.inkscape.org/) -->

<svg
   width="1024"
   height="500"
   viewBox="0 0 270.93333 132.29167"
   version="1.1"
   id="svg5"
   inkscape:version="1.1 (c68e22c387, 2021-05-23)"
   sodipodi:docname="promotion_gfx.svg"
   inkscape:export-filename="/home/tiptop/projects/flutter/math_puzzles_publication_resources/promotion_gfx.png"
   inkscape:export-xdpi="90.953445"
   inkscape:export-ydpi="90.953445"
   xmlns:inkscape="http://www.inkscape.org/namespaces/inkscape"
   xmlns:sodipodi="http://sodipodi.sourceforge.net/DTD/sodipodi-0.dtd"
   xmlns="http://www.w3.org/2000/svg"
   xmlns:svg="http://www.w3.org/2000/svg">
  <sodipodi:namedview
     id="namedview7"
     pagecolor="#646464"
     bordercolor="#000000"
     borderopacity="1"
     inkscape:pageshadow="2"
     inkscape:pageopacity="0"
     inkscape:pagecheckerboard="false"
     inkscape:document-units="mm"
     showgrid="false"
     width="1024px"
     units="px"
     showguides="true"
     inkscape:zoom="0.7071068"
     inkscape:cx="337.28993"
     inkscape:cy="224.85995"
     inkscape:window-width="1920"
     inkscape:window-height="1011"
     inkscape:window-x="0"
     inkscape:window-y="32"
     inkscape:window-maximized="1"
     inkscape:current-layer="layer2"
     borderlayer="true"
     inkscape:showpageshadow="false"
     inkscape:guide-bbox="true">
    <inkscape:grid
       type="xygrid"
       id="grid1053" />
    <sodipodi:guide
       position="212.15854,242.67398"
       orientation="0,-1"
       id="guide2167" />
  </sodipodi:namedview>
  <defs
     id="defs2">
    <inkscape:path-effect
       effect="bspline"
       id="path-effect33256"
       is_visible="true"
       lpeversion="1"
       weight="33.333333"
       steps="2"
       helper_size="0"
       apply_no_weight="true"
       apply_with_weight="true"
       only_selected="false" />
    <inkscape:path-effect
       effect="bspline"
       id="path-effect30867"
       is_visible="true"
       lpeversion="1"
       weight="33.333333"
       steps="2"
       helper_size="0"
       apply_no_weight="true"
       apply_with_weight="true"
       only_selected="false" />
    <inkscape:path-effect
       effect="bspline"
       id="path-effect15660"
       is_visible="true"
       lpeversion="1"
       weight="33.333333"
       steps="2"
       helper_size="0"
       apply_no_weight="true"
       apply_with_weight="true"
       only_selected="false" />
    <inkscape:path-effect
       effect="bspline"
       id="path-effect15397"
       is_visible="true"
       lpeversion="1"
       weight="33.333333"
       steps="2"
       helper_size="0"
       apply_no_weight="true"
       apply_with_weight="true"
       only_selected="false" />
    <inkscape:path-effect
       effect="bspline"
       id="path-effect15294"
       is_visible="true"
       lpeversion="1"
       weight="33.333333"
       steps="2"
       helper_size="0"
       apply_no_weight="true"
       apply_with_weight="true"
       only_selected="false" />
  </defs>
  <g
     inkscape:groupmode="layer"
     id="layer2"
     inkscape:label="Background">
    <rect
       style="display:inline;fill:#f57f17;stroke-width:0.467193;stroke-linejoin:round;stroke-dashoffset:1.54772;paint-order:markers stroke fill"
       id="rect1730"
       width="276.26221"
       height="30.297153"
       x="-2.0823314"
       y="106.6614" />
    <rect
       style="display:inline;fill:#42a5f5;stroke-width:0.630389;stroke-linejoin:round;stroke-dashoffset:1.54772;paint-order:markers stroke fill"
       id="rect1834"
       width="276.26221"
       height="109.33472"
       x="-2.0823314"
       y="-2.6733184"
       inkscape:export-filename="/home/tiptop/projects/flutter/math_puzzles_publication_resources/promotion_gfx_en-1024x500.png"
       inkscape:export-xdpi="96"
       inkscape:export-ydpi="96" />
  </g>
  <g
     inkscape:label="Foreground"
     inkscape:groupmode="layer"
     id="layer1"
     style="display:inline">
    <g
       id="g2160"
       transform="translate(-1.0625823,1.2287514)">
      <g
         id="g110132"
         transform="translate(-10.015678,-0.4801684)">
        <rect
           style="fill:#4e342e;stroke:none;stroke-width:0.769135;stroke-linejoin:round;stroke-dashoffset:1.54772;paint-order:markers stroke fill"
           id="rect3203"
           width="6.6039696"
           height="23.862144"
           x="90.217819"
           y="90.751732" />
        <g
           id="g3730"
           transform="matrix(0.80262405,0,0,0.80262405,48.453716,47.084196)">
          <path
             style="fill:#ffe57f;stroke:#000000;stroke-width:0;stroke-linejoin:round;stroke-dashoffset:1.54772;stroke-opacity:1;paint-order:markers stroke fill"
             d="m 45.483202,6.860173 c 0,6.997301 5.200955,13.671226 11.438222,12.669729 4.487792,-0.72059 9.061909,0.564018 9.061909,-6.433278 0,-1.257373 9.857524,-1.568864 3.849156,-6.55227 C 68.365306,5.327457 67.562297,2.169728 67.354639,1.659397 65.562718,-2.744213 61.565248,-5.8095546 56.921424,-5.8095557 50.604268,-5.8095574 45.483202,-0.137127 45.483202,6.860173 Z"
             id="ellipse30831" />
          <rect
             style="fill:#ffe57f;fill-opacity:1;stroke:none;stroke-width:0.172849;stroke-linejoin:round;stroke-miterlimit:4;stroke-dasharray:none;stroke-dashoffset:1.54772;stroke-opacity:1;paint-order:markers stroke fill"
             id="rect30859"
             width="6.3051534"
             height="8.9190111"
             x="-58.831993"
             y="16.044319"
             transform="scale(-1,1)" />
          <g
             id="g32317"
             transform="matrix(0.90270371,0,0,0.90270371,-31.411997,-33.358248)">
            <ellipse
               style="fill:#000000;fill-opacity:1;stroke:none;stroke-width:0.2;stroke-linejoin:round;stroke-dashoffset:1.54772;stroke-opacity:1;paint-order:markers stroke fill"
               id="path32075"
               cx="89.076027"
               cy="38.233074"
               rx="1.7429312"
               ry="1.8388764" />
            <ellipse
               style="fill:#000000;fill-opacity:1;stroke:none;stroke-width:0.2;stroke-linejoin:round;stroke-dashoffset:1.54772;stroke-opacity:1;paint-order:markers stroke fill"
               id="path32077"
               cx="91.208275"
               cy="39.025539"
               rx="1.3808837"
               ry="1.5392593" />
            <ellipse
               style="fill:#000000;fill-opacity:1;stroke:none;stroke-width:0.2;stroke-linejoin:round;stroke-dashoffset:1.54772;stroke-opacity:1;paint-order:markers stroke fill"
               id="path32079"
               cx="90.909019"
               cy="37.018326"
               rx="1.4708796"
               ry="1.6629754" />
            <ellipse
               style="fill:#000000;fill-opacity:1;stroke:none;stroke-width:0.2;stroke-linejoin:round;stroke-dashoffset:1.54772;stroke-opacity:1;paint-order:markers stroke fill"
               id="path32081"
               cx="94.98008"
               cy="37.727749"
               rx="1.406545"
               ry="1.707952" />
            <ellipse
               style="fill:#000000;fill-opacity:1;stroke:none;stroke-width:0.2;stroke-linejoin:round;stroke-dashoffset:1.54772;stroke-opacity:1;paint-order:markers stroke fill"
               id="path32083"
               cx="94.37323"
               cy="39.407387"
               rx="2.2456579"
               ry="1.9159389" />
            <ellipse
               style="fill:#000000;fill-opacity:1;stroke:none;stroke-width:0.2;stroke-linejoin:round;stroke-dashoffset:1.54772;stroke-opacity:1;paint-order:markers stroke fill"
               id="path32085"
               cx="97.285118"
               cy="37.97237"
               rx="1.2577871"
               ry="1.7681258" />
            <ellipse
               style="fill:#000000;fill-opacity:1;stroke:none;stroke-width:0.2;stroke-linejoin:round;stroke-dashoffset:1.54772;stroke-opacity:1;paint-order:markers stroke fill"
               id="path32087"
               cx="97.776726"
               cy="39.524654"
               rx="1.7608905"
               ry="1.8881322" />
            <ellipse
               style="fill:#000000;fill-opacity:1;stroke:none;stroke-width:0.2;stroke-linejoin:round;stroke-dashoffset:1.54772;stroke-opacity:1;paint-order:markers stroke fill"
               id="path32089"
               cx="92.516235"
               cy="37.574223"
               rx="1.9267541"
               ry="1.8557965" />
            <ellipse
               style="fill:#000000;fill-opacity:1;stroke:none;stroke-width:0.2;stroke-linejoin:round;stroke-dashoffset:1.54772;stroke-opacity:1;paint-order:markers stroke fill"
               id="path32211"
               cx="99.519325"
               cy="38.361683"
               rx="1.6956266"
               ry="1.6295464" />
            <ellipse
               style="fill:#000000;fill-opacity:1;stroke:none;stroke-width:0.2;stroke-linejoin:round;stroke-dashoffset:1.54772;stroke-opacity:1;paint-order:markers stroke fill"
               id="path32213"
               cx="86.44912"
               cy="37.583405"
               rx="1.8664418"
               ry="1.8777666" />
            <ellipse
               style="fill:#000000;fill-opacity:1;stroke:none;stroke-width:0.2;stroke-linejoin:round;stroke-dashoffset:1.54772;stroke-opacity:1;paint-order:markers stroke fill"
               id="path32215"
               cx="92.55175"
               cy="35.861774"
               rx="2.0274665"
               ry="2.1020255" />
            <ellipse
               style="fill:#000000;fill-opacity:1;stroke:none;stroke-width:0.2;stroke-linejoin:round;stroke-dashoffset:1.54772;stroke-opacity:1;paint-order:markers stroke fill"
               id="path32217"
               cx="95.457855"
               cy="36.850571"
               rx="1.958593"
               ry="1.9894985" />
            <ellipse
               style="fill:#000000;fill-opacity:1;stroke:none;stroke-width:0.2;stroke-linejoin:round;stroke-dashoffset:1.54772;stroke-opacity:1;paint-order:markers stroke fill"
               id="path32219"
               cx="98.059311"
               cy="37.018661"
               rx="1.8950236"
               ry="1.8716117" />
            <ellipse
               style="fill:#000000;fill-opacity:1;stroke:none;stroke-width:0.2;stroke-linejoin:round;stroke-dashoffset:1.54772;stroke-opacity:1;paint-order:markers stroke fill"
               id="path32221"
               cx="88.683983"
               cy="35.799446"
               rx="1.905442"
               ry="1.9876244" />
          </g>
          <g
             id="g33240"
             transform="matrix(-0.90270371,0,0,1.0173424,93.738077,-36.527411)">
            <circle
               style="fill:#ffffff;fill-opacity:1;stroke:#000000;stroke-width:0.273245;stroke-linejoin:round;stroke-miterlimit:4;stroke-dasharray:none;stroke-dashoffset:1.54772;stroke-opacity:1;paint-order:markers stroke fill"
               id="circle33234"
               cx="33.79174"
               cy="41.605328"
               r="2.0493391" />
            <circle
               style="fill:#000000;fill-opacity:1;stroke:none;stroke-width:0.273245;stroke-linejoin:round;stroke-miterlimit:4;stroke-dasharray:none;stroke-dashoffset:1.54772;stroke-opacity:1;paint-order:markers stroke fill"
               id="circle33236"
               cx="33.79174"
               cy="41.605328"
               r="0.99177003" />
            <path
               id="path33238"
               style="fill:#000000;fill-opacity:1;stroke:none;stroke-width:0.2;stroke-linejoin:round;stroke-miterlimit:4;stroke-dasharray:none;stroke-dashoffset:1.54772;stroke-opacity:1;paint-order:markers stroke fill"
               d="m 34.287009,37.894617 a 2.6304271,2.5535226 9.1888916 0 0 -2.706781,1.26764 5.0406225,4.3692249 9.1888916 0 1 3.17689,-0.403752 5.0406225,4.3692249 9.1888916 0 1 1.407764,0.416705 2.6304271,2.5535226 9.1888916 0 0 -1.877873,-1.280593 z" />
          </g>
          <path
             style="fill:#000000;fill-opacity:1;stroke:none;stroke-width:0.237174;stroke-linejoin:round;stroke-miterlimit:4;stroke-dasharray:none;stroke-dashoffset:1.54772;stroke-opacity:1;paint-order:markers stroke fill"
             d="m 65.64499,15.910797 c -0.709534,-0.107282 -0.882122,-0.252475 -1.305318,-0.375631 -1.338367,-0.390438 -2.492582,-1.005873 -3.338993,-1.780386 0.489582,1.507817 1.523574,2.259821 2.744761,2.649806 0.51474,0.149648 1.030572,0.323633 1.573972,0.308693"
             id="path36691"
             sodipodi:nodetypes="ccccc" />
        </g>
        <path
           id="rect944"
           style="fill:#ffffe1;fill-opacity:1;stroke-width:0.886346;stroke-linejoin:round;stroke-dashoffset:1.54772;paint-order:markers stroke fill"
           d="m 90.063715,63.616535 5.973705,2.09853 c 0.122862,0.04316 0.174803,0.110253 0.835569,0.512332 l 0.309904,2.689813 c 0.0125,0.108518 -0.189034,0.144707 -0.311653,0.101055 l -8.076368,-2.875196 c -0.122618,-0.04365 -0.181048,-0.159007 -0.131011,-0.258644 l 1.088201,-2.166837 c 0.05003,-0.09964 0.188791,-0.144215 0.311653,-0.101053 z"
           sodipodi:nodetypes="sscssssss" />
        <path
           id="rect4026"
           style="stroke-width:0.802624;stroke-linejoin:round;stroke-dashoffset:1.54772;paint-order:markers stroke fill"
           d="m 90.217817,113.86209 c 0,0 6.893967,-0.8473 8.784131,1.03376 1.890162,1.88106 2.044402,3.4841 2.044402,3.4841 H 90.274154 Z"
           sodipodi:nodetypes="czccc" />
        <path
           id="rect1092"
           style="fill:#5d4037;stroke-width:0.802624;stroke-linejoin:round;stroke-dashoffset:1.54772;paint-order:markers stroke fill"
           d="m 87.879863,73.751107 c 0.01634,-1.385203 0.737556,-7.6031 0.737556,-7.6031 l 8.436457,2.781129 c 0.666665,1.938395 1.112503,3.500128 1.592138,6.330509 1.937846,5.408942 0.613689,16.621224 0.613689,16.621224 l -11.63469,-0.189052 c 0,0 0.160662,-9.956477 0.25485,-17.94071 z"
           sodipodi:nodetypes="scccccs" />
        <g
           id="g110099">
          <rect
             style="fill:#ffffe1;fill-opacity:1;stroke:none;stroke-width:0.854963;stroke-linejoin:round;stroke-dashoffset:1.54772;paint-order:markers stroke fill"
             id="rect15837"
             width="1.3286136"
             height="3.821183"
             x="135.37321"
             y="13.637128"
             transform="rotate(30)" />
          <path
             id="rect14989"
             style="fill:#4e342e;stroke-width:0.738444;stroke-linejoin:round;stroke-dashoffset:1.54772;paint-order:markers stroke fill"
             d="m 93.97851,69.00463 c 6.79456,4.509815 16.8799,10.32641 16.8799,10.32641 l -2.18344,3.948848 c 0,0 -9.653769,-5.456208 -17.311399,-10.074241 -0.852245,-0.513963 -1.706745,-1.645672 -0.655339,-3.42981 0.954248,-1.619273 2.476512,-1.298059 3.270277,-0.771206 z"
             sodipodi:nodetypes="sccsss" />
          <path
             style="fill:#ffe57f;fill-opacity:1;stroke:none;stroke-width:0.212361px;stroke-linecap:butt;stroke-linejoin:miter;stroke-opacity:1"
             d="m 109.85732,83.230058 c 0.34651,-0.02831 0.62984,0.368274 0.97695,0.332475 0.373,0.0042 0.685,0.134705 1.05749,0.134195 0.43686,0.132374 0.88259,-0.109659 1.22317,-0.555188 0.13701,-0.181439 0.27933,-0.690503 0.15776,-0.872471 -0.1099,-0.234772 -0.34424,-0.390207 -0.51843,-0.57314 -0.14806,-0.155548 -0.42519,-0.25197 -0.58091,-0.399244 -0.0686,-0.06471 -0.31139,-0.223804 -0.0986,-0.1812 0.22834,0.04573 0.9187,0.295926 1.24867,-0.06326 0.16357,-0.177996 -0.20228,-0.208539 -0.30968,-0.276405 -0.18205,-0.114932 -0.33845,-0.03976 -0.53954,-0.09607 -0.20448,-0.05726 -0.23437,-0.03923 -0.44912,-0.08749 -0.38724,-0.08703 0.0292,0.02963 -0.49767,-0.200953 -0.0925,-0.04055 -0.21839,0.306327 -0.39739,0.646931 -0.29892,0.568782 -0.68179,1.227218 -0.59142,1.066112 0.13797,-0.246035 -0.43854,0.719576 -0.68132,1.125742 z"
             id="path15919"
             sodipodi:nodetypes="cccccsssssssssscc"
             inkscape:transform-center-x="-0.87868102"
             inkscape:transform-center-y="0.58753277" />
        </g>
      </g>
      <path
         id="path56580"
         style="fill:#ffffe1;fill-opacity:1;stroke-linejoin:round;stroke-dashoffset:1.54772;paint-order:markers stroke fill"
         d="m 142.65191,23.559029 c 0,6.677888 -11.77792,12.091384 -26.30672,12.091385 -3.34959,0 -6.55296,-0.287741 -9.4995,-0.812378 -0.77743,-0.138423 -1.53697,-0.293336 -2.27661,-0.463808 -1.17505,-0.270825 -7.560655,11.269543 -8.627045,10.923931 -0.9659,-0.313041 3.37692,-12.505682 2.5129,-12.874223 -0.80668,-0.344086 -1.56633,-0.711149 -2.274,-1.098924 -0.9968,-0.546202 -1.8905,-1.133497 -2.66731,-1.755557 -2.21096,-1.770489 -3.47516,-3.8226 -3.47516,-6.010426 0,-6.677888 11.777925,-12.091386 26.306725,-12.091385 14.5288,0 26.30672,5.413497 26.30672,12.091385 z"
         sodipodi:nodetypes="sssssssssss" />
      <text
         xml:space="preserve"
         style="font-style:normal;font-variant:normal;font-weight:normal;font-stretch:normal;font-size:5.64444px;line-height:1.25;font-family:sans-serif;-inkscape-font-specification:'sans-serif, Normal';font-variant-ligatures:normal;font-variant-caps:normal;font-variant-numeric:normal;font-variant-east-asian:normal;stroke-width:0.264583"
         x="99.015686"
         y="20.918154"
         id="text131298"><tspan
           sodipodi:role="line"
           id="tspan149570"
           x="99.015686"
           y="20.918154">7% incrase</tspan><tspan
           sodipodi:role="line"
           id="tspan149572"
           x="99.015686"
           y="27.973703">in salary, Ok?</tspan></text>
    </g>
    <g
       id="g2122"
       transform="translate(-3.806222,3.7922909)">
      <g
         id="g171870"
         transform="translate(-0.93706464,4.142831)">
        <ellipse
           style="fill:#ffe57f;stroke-width:0;stroke-linejoin:round;stroke-dashoffset:1.54772;paint-order:markers stroke fill"
           id="path846"
           cx="-200.10144"
           cy="51.093002"
           rx="8.8215485"
           ry="11.265079"
           transform="scale(-1,1)" />
        <ellipse
           style="fill:#ffe57f;stroke-width:0;stroke-linejoin:round;stroke-dashoffset:1.54772;paint-order:markers stroke fill"
           id="path950"
           cx="-209.48579"
           cy="51.093002"
           rx="1.8715346"
           ry="2.7572546"
           transform="scale(-1,1)" />
        <ellipse
           style="fill:#ffe57f;stroke-width:0;stroke-linejoin:round;stroke-dashoffset:1.54772;paint-order:markers stroke fill"
           id="ellipse952"
           cx="-190.86131"
           cy="51.093002"
           rx="1.8715346"
           ry="2.7572546"
           transform="scale(-1,1)" />
        <g
           id="g6785"
           transform="matrix(-0.80262405,0,0,0.90455313,231.23445,14.5672)">
          <circle
             style="fill:#ffffff;fill-opacity:1;stroke:#000000;stroke-width:0.273245;stroke-linejoin:round;stroke-miterlimit:4;stroke-dasharray:none;stroke-dashoffset:1.54772;stroke-opacity:1;paint-order:markers stroke fill"
             id="path5883"
             cx="33.79174"
             cy="41.605328"
             r="2.0493391" />
          <circle
             style="fill:#000000;fill-opacity:1;stroke:none;stroke-width:0.273245;stroke-linejoin:round;stroke-miterlimit:4;stroke-dasharray:none;stroke-dashoffset:1.54772;stroke-opacity:1;paint-order:markers stroke fill"
             id="path6041"
             cx="33.79174"
             cy="41.605328"
             r="0.99177003" />
          <path
             id="path6437"
             style="fill:#000000;fill-opacity:1;stroke:none;stroke-width:0.2;stroke-linejoin:round;stroke-miterlimit:4;stroke-dasharray:none;stroke-dashoffset:1.54772;stroke-opacity:1;paint-order:markers stroke fill"
             d="m 34.287009,37.894617 a 2.6304271,2.5535226 9.1888916 0 0 -2.706781,1.26764 5.0406225,4.3692249 9.1888916 0 1 3.17689,-0.403752 5.0406225,4.3692249 9.1888916 0 1 1.407764,0.416705 2.6304271,2.5535226 9.1888916 0 0 -1.877873,-1.280593 z" />
        </g>
        <g
           id="g6793"
           transform="matrix(-0.80262405,0,0,0.90455313,223.48651,14.5672)">
          <circle
             style="fill:#ffffff;fill-opacity:1;stroke:#000000;stroke-width:0.273245;stroke-linejoin:round;stroke-miterlimit:4;stroke-dasharray:none;stroke-dashoffset:1.54772;stroke-opacity:1;paint-order:markers stroke fill"
             id="circle6787"
             cx="33.79174"
             cy="41.605328"
             r="2.0493391" />
          <circle
             style="fill:#000000;fill-opacity:1;stroke:none;stroke-width:0.273245;stroke-linejoin:round;stroke-miterlimit:4;stroke-dasharray:none;stroke-dashoffset:1.54772;stroke-opacity:1;paint-order:markers stroke fill"
             id="circle6789"
             cx="33.79174"
             cy="41.605328"
             r="0.99177003" />
          <path
             id="path6791"
             style="fill:#000000;fill-opacity:1;stroke:none;stroke-width:0.2;stroke-linejoin:round;stroke-miterlimit:4;stroke-dasharray:none;stroke-dashoffset:1.54772;stroke-opacity:1;paint-order:markers stroke fill"
             d="m 34.287009,37.894617 a 2.6304271,2.5535226 9.1888916 0 0 -2.706781,1.26764 5.0406225,4.3692249 9.1888916 0 1 3.17689,-0.403752 5.0406225,4.3692249 9.1888916 0 1 1.407764,0.416705 2.6304271,2.5535226 9.1888916 0 0 -1.877873,-1.280593 z" />
        </g>
        <path
           style="fill:none;stroke:#000000;stroke-width:0.225442px;stroke-linecap:butt;stroke-linejoin:miter;stroke-opacity:1"
           d="m 199.34332,51.518107 c 1.94852,3.461889 1.90208,3.362889 1.90208,3.362889 l -2.24769,0.04609 v 0"
           id="path6940" />
        <path
           id="path7044"
           style="fill:#000000;fill-opacity:1;stroke:none;stroke-width:0.170413;stroke-linejoin:round;stroke-miterlimit:4;stroke-dasharray:none;stroke-dashoffset:1.54772;stroke-opacity:1;paint-order:markers stroke fill"
           d="m 200.1746,56.943833 a 2.7991379,3.0331193 0 0 1 2.41353,1.50142 4.6915302,4.5848185 0 0 0 -2.41353,-0.654885 4.6915302,4.5848185 0 0 0 -2.41561,0.655352 2.7991379,3.0331193 0 0 1 2.41561,-1.501887 z" />
        <rect
           style="fill:#ffe57f;fill-opacity:1;stroke:none;stroke-width:0.170413;stroke-linejoin:round;stroke-miterlimit:4;stroke-dasharray:none;stroke-dashoffset:1.54772;stroke-opacity:1;paint-order:markers stroke fill"
           id="rect13119"
           width="6.8929119"
           height="7.9301915"
           x="-203.67409"
           y="60.429043"
           transform="scale(-1,1)" />
        <path
           style="fill:#000000;fill-opacity:1;stroke:none;stroke-width:0.225442px;stroke-linecap:butt;stroke-linejoin:miter;stroke-opacity:1"
           d="m 192.57338,46.527175 c 0.21931,0.01344 0.65771,0.04032 1.0741,0.03523 0.41639,-0.0051 0.81079,-0.04209 1.83441,-0.252248 1.02362,-0.21016 2.67642,-0.593442 3.73184,-0.971826 1.05542,-0.378384 1.51355,-0.751874 2.01946,-1.13551 0.50591,-0.383637 1.05955,-0.777384 1.43021,-1.053598 0.37066,-0.276213 0.55834,-0.434898 0.84591,-0.251377 0.28756,0.18352 0.6748,0.708967 1.05516,1.067382 0.38035,0.358415 0.75372,0.549896 1.433,0.968406 0.67927,0.418509 1.66439,1.063966 2.13605,1.010008 0.47167,-0.05396 0.43008,-0.807408 0.27814,-1.472747 -0.15195,-0.665339 -0.41436,-1.242527 -0.71583,-1.749425 -0.30147,-0.506898 -0.64205,-0.943429 -0.95958,-1.271858 -0.31753,-0.328428 -0.61203,-0.548644 -0.89373,-0.717907 -0.2817,-0.169262 -0.55058,-0.287482 -0.77351,-0.342653 -0.22294,-0.05517 -0.39984,-0.04716 -0.53899,-0.01371 -0.13914,0.03346 -0.24037,0.09238 -0.34125,0.04031 -0.10089,-0.05206 -0.20153,-0.215401 -0.47551,-0.427961 -0.27398,-0.21256 -0.72136,-0.474211 -1.19896,-0.656437 -0.47759,-0.182225 -0.98536,-0.284912 -1.51449,-0.336282 -0.52913,-0.05137 -1.07955,-0.05137 -1.56131,-0.01824 -0.48175,0.03313 -0.89478,0.09942 -1.25657,0.212665 -0.36179,0.113243 -0.67221,0.273437 -1.04131,0.449344 -0.3691,0.175908 -0.79687,0.367526 -1.19071,0.59758 -0.39384,0.230053 -0.75366,0.498511 -1.0759,0.793993 -0.32224,0.295483 -0.60683,0.617929 -0.89797,0.943494 -0.29114,0.325565 -0.5888,0.654229 -0.84689,1.00131 -0.25809,0.347081 -0.47656,0.712498 -0.63155,1.022758 -0.15499,0.310261 -0.24648,0.56527 -0.32401,0.808704 -0.0775,0.243434 -0.14112,0.475229 -0.19455,0.676114 -0.0534,0.200885 -0.0967,0.370831 -0.0324,0.537557 0.0643,0.166726 0.23599,0.330195 0.32171,0.411824 0.0857,0.08163 0.0857,0.08164 0.30502,0.09509 z"
           id="path15658"
           inkscape:path-effect="#path-effect15660"
           inkscape:original-d="m 192.35407,46.513731 c 0.43861,0.02712 0.87701,0.05399 1.3152,0.08062 0.39462,-0.03677 0.78902,-0.07378 1.18322,-0.111018 1.65308,-0.383059 3.30588,-0.766341 4.9585,-1.149869 0.45836,-0.373266 0.91649,-0.746756 1.37442,-1.120494 0.55387,-0.393525 1.10751,-0.78727 1.66095,-1.181266 0.1879,-0.158449 0.37559,-0.317132 0.56307,-0.476056 0.38746,0.525709 0.7747,1.051155 1.16174,1.576373 0.3736,0.19173 0.74697,0.383211 1.12014,0.574458 0.98539,0.645736 1.9705,1.291195 2.95546,1.936453 -0.0414,-0.753255 -0.083,-1.506703 -0.12477,-2.260434 -0.26221,-0.576975 -0.52461,-1.154166 -0.78724,-1.73161 -0.34039,-0.436322 -0.68096,-0.872856 -1.02177,-1.309656 -0.29431,-0.219991 -0.58881,-0.440208 -0.88354,-0.660677 -0.26868,-0.117988 -0.53756,-0.236206 -0.80667,-0.354672 -0.1767,0.0082 -0.3536,0.01626 -0.53072,0.02403 -0.10102,0.05917 -0.20225,0.118083 -0.30369,0.176764 -0.10044,-0.163105 -0.20109,-0.326443 -0.30195,-0.490025 -0.44719,-0.261422 -0.89457,-0.523074 -1.34217,-0.784971 -0.50758,-0.102451 -1.01535,-0.205138 -1.52335,-0.308069 -0.55022,2.39e-4 -1.10064,2.39e-4 -1.65128,0 -0.41283,0.06653 -0.82586,0.132823 -1.23912,0.198876 -0.31022,0.160442 -0.62064,0.320634 -0.93128,0.480593 -0.42757,0.191861 -0.85535,0.383476 -1.28334,0.574856 -0.35962,0.268704 -0.71944,0.53716 -1.07947,0.805382 -0.2844,0.3227 -0.569,0.645144 -0.85381,0.967359 -0.29747,0.328918 -0.59513,0.657584 -0.89301,0.986019 -0.21827,0.365671 -0.43674,0.731089 -0.65543,1.096276 -0.0913,0.255266 -0.18277,0.510282 -0.27448,0.765065 -0.0634,0.232052 -0.12695,0.463854 -0.19074,0.695423 -0.0431,0.17019 -0.0864,0.340131 -0.12985,0.509839 0.17187,0.163713 0.34353,0.327183 0.51499,0.490416 z"
           sodipodi:nodetypes="sccccccccccccccccccccccccccccccss" />
        <path
           id="rect7817"
           style="fill:#ffffff;fill-opacity:1;stroke:none;stroke-width:0.156607;stroke-linejoin:round;stroke-miterlimit:4;stroke-dasharray:none;stroke-dashoffset:1.54772;stroke-opacity:1;paint-order:markers stroke fill"
           d="m 202.95685,63.69822 1.89839,0.570837 0.88342,0.227861 2.21117,0.613739 1.1574,0.648738 c 0.18063,0.153632 0.63191,0.374444 0.93261,0.626019 0.87606,0.732956 1.43948,1.331731 1.78848,1.900815 0.32225,0.525489 0.63047,1.379815 1.31107,3.633851 0.24313,0.805202 0.53813,1.755442 0.65533,2.111226 0.51667,1.568452 0.61322,2.646567 1.0419,4.494054 0.12008,0.517511 0.23471,1.474162 0.34135,2.110831 0.14686,0.876703 0.12494,1.56682 0.18375,2.091883 0.0954,0.852016 0.10525,1.355899 0.13811,2.163731 l 0.0218,0.641577 -1.73899,0.04176 -1.66321,0.01462 -0.2219,-1.934765 c -0.28699,-1.473816 -0.39244,-2.252964 -0.83244,-3.631483 -0.0478,-0.149804 -0.18361,-0.701443 -0.30153,-1.225759 -0.11794,-0.524316 -0.31294,-1.382419 -0.43344,-1.906734 -0.26042,-1.133139 -0.43333,-1.934903 -0.67524,-3.132102 -0.1388,-0.686929 -0.2359,-1.056861 -0.43343,-1.651319 -0.25594,-0.770232 -0.35062,-1.192116 -0.40813,-1.553023 l -0.0706,15.583519 h -8.5691 -8.5691 l -0.0705,-15.586288 c -0.0575,0.361516 -0.15196,0.783593 -0.40854,1.555788 -0.19753,0.594458 -0.29464,0.96439 -0.43343,1.651319 -0.24191,1.197199 -0.41482,1.998963 -0.67525,3.132102 -0.1205,0.524315 -0.3155,1.382418 -0.43343,1.906734 -0.11793,0.524316 -0.25372,1.075955 -0.30153,1.225759 -0.44001,1.378519 -0.54546,2.157667 -0.83244,3.631483 l -0.22191,1.934765 h -1.66321 c -1.30672,0 -1.7703,-0.01 -1.7703,-0.01 0,0 0.0332,-0.332102 0.0531,-0.687962 0.0449,-0.795933 0.0427,-1.311714 0.13811,-2.16373 0.0588,-0.525063 0.0369,-1.21518 0.18375,-2.091883 0.10664,-0.63667 0.22127,-1.593321 0.34135,-2.110832 0.42868,-1.847487 0.52523,-2.925601 1.04189,-4.494053 0.1172,-0.355784 0.41221,-1.306024 0.65534,-2.111227 0.68059,-2.254035 0.98882,-3.108362 1.31108,-3.63385 0.34899,-0.569085 0.91241,-1.167859 1.78847,-1.900815 0.3007,-0.251576 0.82279,-0.583309 1.00342,-0.73694 l 0.75559,-0.379629 1.69768,-0.522513 1.72833,-0.477276 1.89839,-0.570837 2.78309,3.223873 z"
           sodipodi:nodetypes="cccccssssssscccccssssscccccsssscccscssssssssccccccc" />
        <path
           id="rect5997"
           style="fill:#1a237e;fill-opacity:1;stroke:none;stroke-width:0.129433;stroke-linejoin:round;stroke-dashoffset:1.54772;paint-order:markers stroke fill"
           d="m 208.74265,87.887137 v 27.154153 h -6.42475 l -0.41393,-4.63176 -1.73041,-19.354104 -1.73041,19.354104 -0.41394,4.63176 h -6.42475 V 87.887137 Z" />
        <path
           id="path6638"
           style="fill:#000000;fill-opacity:1;stroke:none;stroke-width:0.162017;stroke-linejoin:round;stroke-dashoffset:1.54772;paint-order:markers stroke fill"
           d="m 194.81714,111.35152 a 3.215616,3.5985743 0 0 1 3.21531,3.59852 3.215616,3.5985743 0 0 1 -0.003,0.0913 h -6.42509 a 3.215616,3.5985743 0 0 1 -0.003,-0.0913 3.215616,3.5985743 0 0 1 3.21567,-3.59852 z" />
        <path
           id="path7033"
           style="fill:#000000;fill-opacity:1;stroke:none;stroke-width:0.162013;stroke-linejoin:round;stroke-dashoffset:1.54772;paint-order:markers stroke fill"
           d="m 205.53041,111.35152 a 3.2154423,3.5985744 0 0 1 3.21513,3.59852 3.2154423,3.5985744 0 0 1 -0.003,0.0913 h -6.42475 a 3.2154423,3.5985744 0 0 1 -0.003,-0.0913 3.2154423,3.5985744 0 0 1 3.2155,-3.59852 z" />
        <rect
           style="fill:#000000;fill-opacity:1;stroke:none;stroke-width:0.309721;stroke-linejoin:round;stroke-dashoffset:1.54772;paint-order:markers stroke fill"
           id="rect12159"
           width="17.138298"
           height="1.7490504"
           x="-208.74271"
           y="86.138092"
           transform="scale(-1,1)" />
        <path
           id="rect7807"
           style="fill:#ff0000;fill-opacity:1;stroke-width:0.172148;stroke-linejoin:round;stroke-dashoffset:1.54772;paint-order:markers stroke fill"
           d="m 202.30308,64.540921 -0.9822,1.595225 0.64375,18.150195 -0.80133,1.387396 -0.80092,1.387397 -0.80091,-1.387397 -0.80092,-1.387396 0.73538,-18.11331 v 0 l -0.94235,-1.632113 1.7892,-0.203097 z"
           sodipodi:nodetypes="cccccccccccc" />
        <path
           id="rect10719"
           style="fill:#c8c8c8;fill-opacity:1;stroke-width:0.160525;stroke-linejoin:round;stroke-dashoffset:1.54772;paint-order:markers stroke fill"
           d="m 205.00537,64.127265 -1.28053,-1.935966 -3.38206,2.146522 1.63607,1.412372 z"
           sodipodi:nodetypes="ccccc" />
        <path
           id="path11486"
           style="fill:#c8c8c8;fill-opacity:1;stroke-width:0.160525;stroke-linejoin:round;stroke-dashoffset:1.54772;paint-order:markers stroke fill"
           d="m 195.9152,63.961255 0.81702,-1.940075 3.61056,2.316641 -1.40107,1.246362 z"
           sodipodi:nodetypes="ccccc" />
        <path
           style="fill:#ffe57f;fill-opacity:1;stroke:none;stroke-width:0.212361px;stroke-linecap:butt;stroke-linejoin:miter;stroke-opacity:1"
           d="m 215.52169,85.533378 c -0.19779,0.285931 0.004,0.729596 -0.20055,1.0123 -0.1829,0.325099 -0.22584,0.66058 -0.41252,0.982901 -0.1038,0.444526 -0.53627,0.709527 -1.0924,0.781709 -0.22563,0.02796 -0.73766,-0.103345 -0.83446,-0.299605 -0.14837,-0.212574 -0.16581,-0.493234 -0.23714,-0.735552 -0.0607,-0.205998 -0.006,-0.49421 -0.0553,-0.702704 -0.0217,-0.09175 -0.0381,-0.381574 -0.10764,-0.175963 -0.0746,0.220618 -0.20307,0.94358 -0.67913,1.049752 -0.23592,0.05262 -0.0795,-0.279448 -0.0845,-0.406395 -0.009,-0.215127 0.13478,-0.312983 0.18656,-0.515292 0.0526,-0.205711 0.0832,-0.222585 0.14879,-0.432693 0.11826,-0.378871 0.0111,0.04008 0.0748,-0.53147 0.0112,-0.10042 0.37449,-0.03597 0.75897,-0.02068 0.64204,0.02552 1.4037,0.02316 1.21899,0.02087 -0.28206,-0.0035 0.84244,-0.02 1.31558,-0.02717 z"
           id="path17668"
           sodipodi:nodetypes="cccccsssssssssscc" />
        <path
           style="fill:#ffe57f;fill-opacity:1;stroke:none;stroke-width:0.212361px;stroke-linecap:butt;stroke-linejoin:miter;stroke-opacity:1"
           d="m 184.79411,85.579761 c 0.19778,0.285931 -0.004,0.729596 0.20055,1.0123 0.1829,0.325099 0.22584,0.660581 0.41252,0.982902 0.1038,0.444525 0.53627,0.709527 1.0924,0.781708 0.22563,0.02796 0.73766,-0.103345 0.83446,-0.299605 0.14837,-0.212573 0.16581,-0.493233 0.23714,-0.735551 0.0607,-0.205998 0.006,-0.49421 0.0553,-0.702705 0.0218,-0.09175 0.0381,-0.381573 0.10764,-0.175963 0.0746,0.220619 0.20307,0.94358 0.67912,1.049753 0.23593,0.05262 0.0795,-0.279449 0.0845,-0.406395 0.008,-0.215127 -0.13479,-0.312983 -0.18657,-0.515293 -0.0526,-0.205711 -0.0832,-0.222584 -0.14879,-0.432692 -0.11825,-0.378871 -0.0111,0.04008 -0.0748,-0.53147 -0.0112,-0.100421 -0.37448,-0.03597 -0.75895,-0.02068 -0.64204,0.02551 -1.4037,0.02316 -1.21899,0.02087 0.28205,-0.0035 -0.84245,-0.02 -1.31559,-0.02717 z"
           id="path30714"
           sodipodi:nodetypes="cccccsssssssssscc" />
      </g>
      <ellipse
         style="fill:#ffffe1;fill-opacity:1;stroke:none;stroke-width:0.553465;stroke-linejoin:round;stroke-dashoffset:1.54772;paint-order:markers stroke fill"
         id="ellipse170464"
         cx="191.0269"
         cy="35.697811"
         rx="1.7547883"
         ry="1.5832187"
         inkscape:transform-center-x="4.8550839"
         inkscape:transform-center-y="-3.0571717" />
      <ellipse
         style="fill:#ffffe1;fill-opacity:1;stroke:none;stroke-width:1.13035;stroke-linejoin:round;stroke-dashoffset:1.54772;paint-order:markers stroke fill"
         id="path162702"
         cx="180.82748"
         cy="18.66197"
         rx="13.35399"
         ry="10.442345" />
      <text
         xml:space="preserve"
         style="font-style:normal;font-variant:normal;font-weight:bold;font-stretch:normal;font-size:14.1111px;line-height:1.25;font-family:sans-serif;-inkscape-font-specification:'sans-serif, Bold';font-variant-ligatures:normal;font-variant-caps:normal;font-variant-numeric:normal;font-variant-east-asian:normal;stroke-width:0.264583"
         x="177.27686"
         y="23.589975"
         id="text162788"><tspan
           sodipodi:role="line"
           id="tspan162786"
           x="177.27686"
           y="23.589975">?</tspan></text>
      <ellipse
         style="fill:#ffffe1;fill-opacity:1;stroke:none;stroke-width:0.745189;stroke-linejoin:round;stroke-dashoffset:1.54772;paint-order:markers stroke fill"
         id="path170382"
         cx="188.35355"
         cy="31.232529"
         rx="2.4060001"
         ry="2.093261" />
      <ellipse
         style="fill:#ffffe1;fill-opacity:1;stroke:none;stroke-width:0.309907;stroke-linejoin:round;stroke-dashoffset:1.54772;paint-order:markers stroke fill"
         id="ellipse170466"
         cx="193.21533"
         cy="40.028088"
         rx="1.0331674"
         ry="0.84309506"
         inkscape:transform-center-x="2.8585275"
         inkscape:transform-center-y="-1.6280044" />
    </g>
  </g>
</svg>
